<svg xmlns="http://www.w3.org/2000/svg" width="103" height="90" viewBox="0 0 103 90" fill="none"><path d="M37.7432 54.1314L37.0528 71.1736L36.9607 72.1924L17.6288 70.8494C16.5242 70.7568 15.4962 70.2705 14.5449 69.3906C13.5937 68.5107 12.8726 67.4996 12.3816 66.3573C12.0441 65.5237 11.8216 64.6747 11.7142 63.8103C11.6068 62.9458 11.6682 61.9424 11.8983 60.8001C12.1285 59.6578 12.3126 58.8088 12.4507 58.253C12.5887 57.6973 12.9186 56.7094 13.4403 55.2892C13.9619 53.869 14.2534 53.0509 14.3148 52.8348C16.7083 53.2052 24.5177 53.6375 37.7432 54.1314ZM19.9303 26.9937L28.2153 44.5452L21.4492 40.2847C19.516 42.5076 17.8053 44.7382 16.317 46.9765C14.8288 49.2148 13.7164 51.1444 12.98 52.7653C12.2435 54.3862 11.6375 55.8449 11.1619 57.1416C10.6862 58.4383 10.4024 59.4108 10.3103 60.0591L10.1262 61.0317L1.38085 44.4989C0.859195 43.6962 0.583025 42.8318 0.552339 41.9056C0.521654 40.9794 0.613711 40.2538 0.828509 39.729L1.19674 38.8954C2.27073 36.9504 4.0198 34.0483 6.44396 30.1891L0 26.2064L19.9303 26.9937ZM40.4589 8.14544C39.0166 10.0905 34.9508 16.8054 28.2614 28.2904L13.6704 19.6304L12.7959 19.0746L23.1522 2.58822C23.7659 1.63115 24.6865 0.936494 25.9139 0.504266C27.1413 0.0720381 28.3688 -0.0823292 29.5962 0.0411646C30.3326 0.102911 31.0768 0.288152 31.8286 0.596887C32.5804 0.905621 33.2248 1.22979 33.7617 1.5694C34.2987 1.90901 34.9355 2.41842 35.6719 3.09764C36.4084 3.77685 36.9607 4.30942 37.3289 4.69534C37.6972 5.08125 38.2495 5.69101 38.986 6.52459C39.7224 7.35817 40.2134 7.89846 40.4589 8.14544ZM64.0254 11.8966L70.5614 8.05282L60.4351 25.3265L41.1493 24.4003L48.0996 20.4176C47.0563 17.6699 45.9055 15.1074 44.6474 12.7302C43.3893 10.3529 42.231 8.44646 41.1723 7.01084C40.1137 5.57523 39.124 4.34029 38.2035 3.30603C37.2829 2.27177 36.5618 1.55396 36.0401 1.15261L35.2577 0.550576L53.8991 0.596887C54.8504 0.504266 55.7403 0.666352 56.5688 1.08314C57.3973 1.49993 57.9956 1.93988 58.3639 2.40298L58.8702 3.09764C60.0669 4.98092 61.7853 7.91389 64.0254 11.8966Z" fill="#EC642D"/><path d="M71.5 89C88.3447 89 102 75.3447 102 58.5C102 41.6553 88.3447 28 71.5 28C54.6553 28 41 41.6553 41 58.5C41 75.3447 54.6553 89 71.5 89Z" stroke="#EC642D" stroke-width="0.5" stroke-linecap="round" stroke-linejoin="round"/><path d="M60.4888 54.0486L63.3757 56.3396L69.4289 57.5029L68.4515 60.6749L65.0156 61.8637L61.8691 66.9394L56.7409 70.1114L49.5514 71.0633L49.3925 73.9176L51.6921 76.403L51.5332 80.6063L45.1367 76.2441L43.2897 70.886" fill="#EC642D"/><path d="M60.4888 54.0486L63.3757 56.3396L69.4289 57.5029L68.4515 60.6749L65.0156 61.8637L61.8691 66.9394L56.7409 70.1114L49.5514 71.0633L49.3925 73.9176L51.6921 76.403L51.5332 80.6063L45.1367 76.2441L43.2897 70.886" stroke="#EC642D" stroke-width="0.5" stroke-linecap="round" stroke-linejoin="round"/><path d="M49.4194 58.7723L54.6271 53.4341L56.7678 57.2402L63.9842 57.7424L67.3676 62.8707H71.6759L70.4871 68.2358L66.4157 72.0689L66.3632 75.1614L62.1074 78.3873L62.2394 83.727L58.6716 82.4048L56.8728 77.3035L56.9522 66.8356L51.5332 65.8568L49.4194 61.7074V58.7723ZM96.3667 76.1644L93.1933 74.0095L91.1321 69.8218L87.1401 62.787L87.0082 58.1878L83.9156 56.2146L79.5009 55.9706L72.2306 52.8085L71.0688 45.8204L74.1869 42.5165H80.5848L82.8843 45.4502L91.8712 46.1382L98.1925 43.7308M93.7295 37.6181L90.4171 39.6878L85.1839 38.7359L81.9849 37.2038L77.7561 38.499L74.689 37.6266L76.7247 33.1324L80.3989 33.3169L84.8321 31.0613M66.3079 88.5587L72.1526 85.4179L77.6156 85.0477L81.5267 84.0433L86.2067 85.2264" fill="#EC642D"/><path d="M96.3667 76.1644L93.1933 74.0095L91.1321 69.8218L87.1401 62.787L87.0082 58.1878L83.9156 56.2146L79.5009 55.9706L72.2306 52.8085L71.0688 45.8204L74.1869 42.5165H80.5848L82.8843 45.4502L91.8712 46.1382L98.1925 43.7308M93.7295 37.6181L90.4171 39.6878L85.1839 38.7359L81.9849 37.2038L77.7561 38.499L74.689 37.6266L76.7247 33.1324L80.3989 33.3169L84.8321 31.0613M66.3079 88.5587L72.1526 85.4179L77.6156 85.0477L81.5267 84.0433L86.2067 85.2264M49.4194 58.7723L54.6271 53.4341L56.7678 57.2402L63.9842 57.7424L67.3676 62.8707H71.6759L70.4871 68.2358L66.4157 72.0689L66.3632 75.1614L62.1074 78.3873L62.2394 83.727L58.6716 82.4048L56.8728 77.3035L56.9522 66.8356L51.5332 65.8568L49.4194 61.7074V58.7723Z" stroke="#EC642D" stroke-width="0.5" stroke-linecap="round" stroke-linejoin="round"/></svg>