<svg xmlns="http://www.w3.org/2000/svg" width="17" height="21" viewBox="0 0 17 21" fill="none"><path d="M10.4724 12.4866L16.0875 6.8859C16.1857 6.7879 16.3064 6.7354 16.4495 6.7284C16.5927 6.7214 16.72 6.7739 16.8316 6.8859C16.9432 6.9979 16.9993 7.1218 17 7.2576C17.0007 7.3934 16.9446 7.5173 16.8316 7.6293L11.0681 13.3791C10.8976 13.5492 10.699 13.6342 10.4724 13.6342C10.2457 13.6342 10.0475 13.5492 9.87772 13.3791L7.10017 10.6092C7.00194 10.5112 6.94931 10.3908 6.94229 10.248C6.93528 10.1052 6.9879 9.9778 7.10017 9.8658C7.21244 9.7538 7.33663 9.6978 7.47275 9.6978C7.60888 9.6978 7.73307 9.7538 7.84534 9.8658L10.4724 12.4866ZM1.70084 21C1.23283 21 0.832528 20.8337 0.499938 20.5012C0.167348 20.1687 0.000701667 19.7701 0 19.3053V1.69575C0 1.22955 0.166646 0.83055 0.499938 0.49875C0.83323 0.16695 1.23318 0.0007 1.69979 0H10.9302C11.3975 0 11.7975 0.16625 12.1301 0.49875C12.4627 0.83125 12.6293 1.2299 12.63 1.6947V4.6431C12.63 4.7922 12.5795 4.9168 12.4784 5.0169C12.3774 5.117 12.2522 5.1674 12.1027 5.1681C11.9533 5.1688 11.8284 5.1184 11.728 5.0169C11.6277 4.9154 11.5775 4.79115 11.5775 4.64415V3.675H1.0525V17.325H11.5775V16.3559C11.5775 16.2068 11.628 16.0822 11.7291 15.9821C11.8301 15.882 11.9554 15.8315 12.1048 15.8308C12.2543 15.8301 12.3792 15.8806 12.4795 15.9821C12.5798 16.0836 12.63 16.2082 12.63 16.3559V19.3032C12.63 19.7701 12.4634 20.1694 12.1301 20.5012C11.7968 20.833 11.3968 20.9993 10.9302 21H1.70084Z" fill="#F1E9FF"/></svg>