<svg xmlns="http://www.w3.org/2000/svg" width="21" height="16" viewBox="0 0 21 16" fill="none"><path d="M19.0312 15.75H1.96875C0.879375 15.75 0 14.8706 0 13.7812V1.96875C0 0.879375 0.879375 0 1.96875 0H19.0312C20.1206 0 21 0.879375 21 1.96875V13.7812C21 14.8706 20.1206 15.75 19.0312 15.75ZM1.96875 1.3125C1.60125 1.3125 1.3125 1.60125 1.3125 1.96875V13.7812C1.3125 14.1488 1.60125 14.4375 1.96875 14.4375H19.0312C19.3988 14.4375 19.6875 14.1488 19.6875 13.7812V1.96875C19.6875 1.60125 19.3988 1.3125 19.0312 1.3125H1.96875Z" fill="#F1E9FF"/><path d="M10.5 10.4477C9.58124 10.4477 8.74124 10.0802 8.11124 9.41081L1.22062 2.08706C0.971241 1.82456 0.984366 1.40456 1.24687 1.15519C1.50937 0.905811 1.92937 0.918936 2.17874 1.18144L9.06937 8.50519C9.81749 9.30581 11.1825 9.30581 11.9306 8.50519L18.8212 1.19456C19.0706 0.932061 19.4906 0.918936 19.7531 1.16831C20.0156 1.41769 20.0287 1.83769 19.7794 2.10019L12.8887 9.42394C12.2587 10.0933 11.4187 10.4608 10.5 10.4608V10.4477Z" fill="#F1E9FF"/></svg>