<svg xmlns="http://www.w3.org/2000/svg" width="49" height="40" viewBox="0 0 49 40" fill="none"><path d="M33.0463 24.3749L24.3841 19.8355C24.5182 11.6497 29.8391 4.10357 38.0838 1.5288C38.6306 1.35803 39.1797 1.21255 39.729 1.09119C39.9417 1.61188 40.1346 2.14623 40.3059 2.69474C42.8807 10.9394 39.706 19.6046 33.0446 24.3754L33.0463 24.3749Z" stroke="#422675"/><path d="M26.9699 25.4381L25.8057 27.6598M30.3024 27.1845L29.1382 29.4062M23.6375 23.6918L22.4732 25.9134" stroke="#422675" stroke-linecap="round"/><path d="M33.3199 16.0229C34.2549 15.7309 34.7761 14.7362 34.4841 13.8012C34.1922 12.8662 33.1975 12.345 32.2625 12.6369C31.3275 12.9289 30.8063 13.9236 31.0982 14.8586C31.3902 15.7936 32.3849 16.3148 33.3199 16.0229Z" stroke="#422675"/><path d="M31.8407 5.33655L40.7273 9.99355" stroke="#422675" stroke-linecap="round"/><path d="M36.8633 21.4195L38.7138 27.3448L18.7189 16.8666L24.6442 15.0161" stroke="#422675" stroke-linecap="round" stroke-linejoin="round"/><path d="M24.5 4.13208C11.5213 4.13208 1 14.5135 1 27.3196C1 31.6336 2.19401 35.6725 4.27375 39.1321M44.7263 39.1321C46.806 35.6725 48 31.6336 48 27.3196C48 23.0055 46.806 18.9666 44.7263 15.5071" stroke="#422675" stroke-width="1.5"/></svg>