<svg xmlns="http://www.w3.org/2000/svg" width="40" height="40" viewBox="0 0 40 40" fill="none"><path d="M17.32 17.3199C16.6065 18.0297 16.2037 18.9935 16.2 19.9999C16.2 21.0078 16.6003 21.9743 17.3129 22.687C18.0256 23.3996 18.9921 23.7999 20 23.7999C21.0063 23.7962 21.9702 23.3934 22.68 22.6799" stroke="white" stroke-linecap="round" stroke-linejoin="round"/><path d="M20 8.59998C17.7453 8.59998 15.5412 9.26857 13.6665 10.5212C11.7918 11.7739 10.3306 13.5543 9.46775 15.6374C8.60492 17.7205 8.37916 20.0126 8.81903 22.224C9.2589 24.4354 10.3446 26.4667 11.939 28.061C13.5333 29.6553 15.5646 30.7411 17.776 31.1809C19.9873 31.6208 22.2795 31.395 24.3626 30.5322C26.4456 29.6694 28.2261 28.2082 29.4787 26.3335C30.7314 24.4588 31.4 22.2547 31.4 20" stroke="white" stroke-linecap="round" stroke-linejoin="round"/><path d="M20 1C16.2422 1 12.5687 2.11433 9.44417 4.20208C6.31964 6.28982 3.88436 9.25722 2.4463 12.729C1.00823 16.2008 0.631969 20.0211 1.36509 23.7067C2.09821 27.3924 3.90778 30.7778 6.56498 33.435C9.22218 36.0922 12.6077 37.9018 16.2933 38.6349C19.9789 39.368 23.7992 38.9918 27.271 37.5537C30.7428 36.1156 33.7102 33.6804 35.7979 30.5558C37.8857 27.4313 39 23.7578 39 20M27.05 12.952L21.9 18.1" stroke="white" stroke-linecap="round" stroke-linejoin="round"/><path d="M37.8799 7.68795L31.3999 8.59995L32.3119 2.11995C32.3186 2.04468 32.3027 1.96913 32.2663 1.90294C32.2298 1.83676 32.1745 1.78295 32.1073 1.74838C32.0401 1.71382 31.9641 1.70007 31.889 1.7089C31.814 1.71773 31.7433 1.74873 31.6859 1.79795L27.3899 6.07195C26.9487 6.51639 26.6241 7.063 26.4451 7.66316C26.2661 8.26331 26.2382 8.89841 26.3639 9.51195L27.0479 12.9519L30.4879 13.6339C31.1015 13.7596 31.7366 13.7318 32.3367 13.5528C32.9369 13.3738 33.4835 13.0492 33.9279 12.6079L38.1999 8.31395C38.2493 8.25648 38.2804 8.18557 38.2892 8.11031C38.298 8.03505 38.2841 7.95888 38.2492 7.89159C38.2144 7.82429 38.1603 7.76895 38.0937 7.73266C38.0272 7.69638 37.9514 7.6808 37.8759 7.68795" stroke="white" stroke-linecap="round" stroke-linejoin="round"/></svg>