<svg xmlns="http://www.w3.org/2000/svg" width="111" height="75" viewBox="0 0 111 75" fill="none"><path d="M95.1263 13.2176C98.7762 13.2176 101.735 10.2588 101.735 6.60881C101.735 2.95886 98.7762 0 95.1263 0C91.4763 0 88.5175 2.95886 88.5175 6.60881C88.5175 10.2588 91.4763 13.2176 95.1263 13.2176Z" fill="#422675"/><path d="M15.8205 13.2176C19.4705 13.2176 22.4293 10.2588 22.4293 6.60881C22.4293 2.95886 19.4705 0 15.8205 0C12.1706 0 9.21173 2.95886 9.21173 6.60881C9.21173 10.2588 12.1706 13.2176 15.8205 13.2176Z" fill="#422675"/><path d="M68.691 13.2176C72.341 13.2176 75.2998 10.2588 75.2998 6.60881C75.2998 2.95886 72.341 0 68.691 0C65.0411 0 62.0822 2.95886 62.0822 6.60881C62.0822 10.2588 65.0411 13.2176 68.691 13.2176Z" fill="#422675"/><path d="M42.2558 13.2176C45.9057 13.2176 48.8646 10.2588 48.8646 6.60881C48.8646 2.95886 45.9057 0 42.2558 0C38.6058 0 35.647 2.95886 35.647 6.60881C35.647 10.2588 38.6058 13.2176 42.2558 13.2176Z" fill="#422675"/><path d="M110.855 38.9919L106.626 19.6942C106.493 19.1655 106.229 18.6368 105.7 18.2402C104.114 17.0507 102.396 15.9932 100.413 15.4645C98.695 14.9358 96.9767 14.5393 95.1262 14.5393C93.2758 14.5393 91.4253 14.8037 89.8392 15.4645C87.8566 16.1254 86.1383 17.0507 84.5522 18.2402C84.0235 18.6368 83.7591 19.1655 83.6269 19.6942L81.9086 27.4926L80.1903 19.6942C80.0582 19.1655 79.7938 18.6368 79.2651 18.2402C77.679 17.0507 75.9607 15.9932 73.9781 15.4645C72.2598 14.9358 70.5415 14.5393 68.691 14.5393C66.8405 14.5393 64.9901 14.8037 63.404 15.4645C61.4213 16.1254 59.703 17.0507 58.1169 18.2402C57.5882 18.6368 57.3239 19.1655 57.1917 19.6942L55.4734 27.3604V27.4926L53.7551 19.6942C53.6229 19.1655 53.3586 18.6368 52.8299 18.2402C51.2438 17.0507 49.5255 15.9932 47.5428 15.4645C45.8245 14.9358 44.1062 14.5393 42.2558 14.5393C40.4053 14.5393 38.5548 14.8037 36.9687 15.4645C34.9861 16.1254 33.2678 17.0507 31.6817 18.2402C31.153 18.6368 30.8886 19.1655 30.7565 19.6942L29.0382 27.3604L27.3199 19.6942C27.1877 19.1655 26.9233 18.6368 26.3946 18.2402C24.8085 17.0507 23.0902 15.9932 21.1076 15.4645C19.3893 14.9358 17.671 14.5393 15.8205 14.5393C13.9701 14.5393 12.1196 14.8037 10.5335 15.4645C8.55086 16.1254 6.83257 17.0507 5.24646 18.2402C4.71775 18.6368 4.4534 19.1655 4.32122 19.6942L0.0915852 38.8597C-0.304943 40.3137 0.62029 41.8998 2.2064 42.1641C2.33858 42.1641 2.47076 42.1641 2.60293 42.1641C3.79252 42.1641 4.84993 41.3711 5.24646 40.0493L9.21174 22.4699V31.8544L5.24646 51.5486H9.21174V74.0186H14.4988V51.5486H17.1423V74.0186H22.4294V51.5486H26.3946L22.4294 31.8544V22.4699L26.3946 40.1815C26.659 41.3711 27.7164 42.2963 28.906 42.2963C30.0956 42.2963 31.153 41.5032 31.4173 40.1815L35.647 22.4699V43.6181V74.0186H40.934V43.6181H43.5775V74.0186H48.8646V43.6181V22.4699L52.8299 40.1815C53.0942 41.3711 54.1516 42.2963 55.4734 42.2963C56.663 42.2963 57.7204 41.5032 57.9847 40.1815L62.0822 22.4699V31.9866L58.1169 51.5486H62.0822V74.0186H67.3693V51.5486H70.0128V74.0186H75.2998V51.5486H79.2651L75.2998 31.7222V22.4699L79.2651 40.1815C79.5295 41.3711 80.5869 42.2963 81.9086 42.2963C83.0982 42.2963 84.1556 41.5032 84.5522 40.1815L88.5174 22.4699V43.6181V74.0186H93.8045V43.6181H96.448V74.0186H101.735V43.6181V22.4699L105.7 40.1815C105.965 41.3711 107.022 42.2963 108.344 42.2963C108.608 42.2963 109.005 42.2963 109.269 42.1641C110.459 41.6354 111.12 40.3137 110.855 38.9919Z" fill="#422675"/></svg>