<svg xmlns="http://www.w3.org/2000/svg" width="104" height="72" viewBox="0 0 104 72" fill="none"><path d="M43.3727 30.0975C43.3727 26.4174 42.4526 22.7373 40.6126 19.583C40.0869 18.6629 38.904 18.2686 37.9839 18.7944C37.0639 19.3201 36.6696 20.503 37.1953 21.423C38.6411 24.0517 39.4297 27.0746 39.4297 29.9661C39.4297 39.8235 31.4123 47.8409 21.6863 47.8409C11.9603 47.8409 3.94297 39.8235 3.94297 30.0975C3.94297 20.3716 11.9603 12.3542 21.6863 12.3542C24.0521 12.3542 26.4179 12.7485 28.5208 13.6685C29.5723 14.0628 30.6237 13.6685 31.1495 12.6171C31.6752 11.5656 31.1495 10.5141 30.098 9.98841C27.4694 8.93695 24.5778 8.27979 21.6863 8.27979C9.72599 8.27979 0 18.0058 0 29.9661C0 41.2693 8.67453 50.601 19.7148 51.521V60.9841H15.1147C14.0633 60.9841 13.1432 61.9042 13.1432 62.9556C13.1432 64.0071 14.0633 64.9271 15.1147 64.9271H19.7148V69.3958C19.7148 70.4473 20.6349 71.3673 21.6863 71.3673C22.7378 71.3673 23.6578 70.4473 23.6578 69.3958V64.9271H28.2579C29.3094 64.9271 30.2294 64.0071 30.2294 62.9556C30.2294 61.9042 29.3094 60.9841 28.2579 60.9841H23.6578V51.521C34.6981 50.7324 43.3727 41.4007 43.3727 30.0975Z" fill="url(#paint0_linear_1_674)"/><path d="M64.139 41.5326C64.4019 41.664 64.7962 41.7954 65.059 41.7954C65.7162 41.7954 66.3733 41.4011 66.7676 40.744C68.6077 37.4582 69.5277 33.7781 69.5277 30.098C69.6592 18.1376 59.9332 8.41162 47.9728 8.41162C36.0125 8.41162 26.2865 18.1376 26.2865 30.098C26.2865 33.7781 27.2065 37.4582 29.0466 40.6125C29.5723 41.5326 30.7552 41.9269 31.6752 41.4011C32.5952 40.8754 32.9895 39.6925 32.4638 38.7725C31.0181 36.1438 30.2295 33.1209 30.2295 30.2294C30.2295 20.372 38.2468 12.3546 47.9728 12.3546C57.6988 12.3546 65.7162 20.372 65.7162 30.098C65.7162 33.1209 64.9276 36.1438 63.3504 38.9039C62.8247 39.8239 63.219 41.0068 64.139 41.5326Z" fill="url(#paint1_linear_1_674)"/><path d="M54.6759 46.527C50.3386 48.2356 45.3442 48.2356 41.1384 46.3956C40.0869 46.0013 39.0355 46.3956 38.5097 47.447C38.1154 48.4985 38.5097 49.55 39.5612 50.0757C41.6641 50.9957 43.767 51.5214 46.0014 51.6529V54.413H41.4012C40.3498 54.413 39.4298 55.333 39.4298 56.3844C39.4298 57.4359 40.3498 58.3559 41.4012 58.3559H46.0014V64.7961L42.847 61.6417C42.0584 60.8531 40.8755 60.8531 40.0869 61.6417C39.2983 62.4303 39.2983 63.6132 40.0869 64.4018L46.5271 70.842C46.6585 70.9734 46.9214 71.2363 47.1843 71.2363C47.4471 71.4992 47.71 71.4992 47.9728 71.4992C48.2357 71.4992 48.4986 71.4992 48.63 71.3677C48.8929 71.2363 49.1557 71.1049 49.2872 70.9734L55.7274 64.5332C56.516 63.7446 56.516 62.5618 55.7274 61.7732C54.9388 60.9846 53.7559 60.9846 52.9673 61.7732L49.8129 64.9275V58.3559H54.5445C55.5959 58.3559 56.5159 57.4359 56.5159 56.3844C56.5159 55.333 55.5959 54.413 54.5445 54.413H49.9443V51.6529C52.0473 51.5214 54.1502 50.9957 56.1217 50.2071C57.1731 49.8128 57.5674 48.6299 57.1731 47.5785C56.7788 46.527 55.5959 46.1327 54.6759 46.527Z" fill="url(#paint2_linear_1_674)"/><path d="M103.437 1.18289C103.174 0.657161 102.911 0.262865 102.386 0.131433C102.123 4.99416e-07 101.86 0 101.729 0H92.3969C91.3454 0 90.4254 0.920026 90.4254 1.97148C90.4254 3.02294 91.3454 3.94297 92.3969 3.94297H96.8656L87.6653 13.1432C84.6424 10.5146 80.8308 8.80596 76.4936 8.1488C72.9449 7.62307 69.2648 8.1488 65.8475 9.46312C64.7961 9.85742 64.2704 11.0403 64.6647 11.9603C65.059 12.8804 66.2418 13.5375 67.1619 13.1432C69.9219 12.0918 72.9449 11.6975 75.8364 12.0918C85.5624 13.4061 92.3969 22.3435 91.0826 31.938C89.7682 41.664 80.8308 48.4985 71.2363 47.1842C66.5047 46.527 62.2989 44.1613 59.4074 40.3497C56.5159 36.5382 55.2015 31.938 55.8587 27.2065C56.1216 24.8407 56.9102 22.4749 58.2245 20.5034C58.7502 19.5834 58.4873 18.4005 57.5673 17.7434C56.6473 17.2176 55.4644 17.4805 54.8072 18.4005C53.3615 20.8977 52.31 23.6578 51.9157 26.6808C50.3385 38.5097 58.7502 49.4185 70.5791 50.9957C71.4991 51.1272 72.4192 51.1272 73.3392 51.1272C84.1166 51.1272 93.4483 43.1098 94.7627 32.2009C95.5513 26.0236 93.7112 20.1091 90.0311 15.6404L99.3628 6.30875V10.7774C99.3628 11.8289 100.283 12.7489 101.334 12.7489C102.386 12.7489 103.306 11.8289 103.306 10.7774V1.44576C103.569 1.70862 103.437 1.44575 103.437 1.18289Z" fill="url(#paint3_linear_1_674)"/><defs><linearGradient id="paint0_linear_1_674" x1="0.20959" y1="40.0437" x2="41.083" y2="40.2428" gradientUnits="userSpaceOnUse"><stop stop-color="#422675"/><stop offset="1" stop-color="#EC642D"/></linearGradient><linearGradient id="paint1_linear_1_674" x1="26.4955" y1="25.22" x2="67.2438" y2="25.5941" gradientUnits="userSpaceOnUse"><stop stop-color="#422675"/><stop offset="1" stop-color="#EC642D"/></linearGradient><linearGradient id="paint2_linear_1_674" x1="38.4514" y1="58.9605" x2="56.3219" y2="59.0556" gradientUnits="userSpaceOnUse"><stop stop-color="#422675"/><stop offset="1" stop-color="#EC642D"/></linearGradient><linearGradient id="paint3_linear_1_674" x1="51.9756" y1="25.742" x2="100.737" y2="26.0917" gradientUnits="userSpaceOnUse"><stop stop-color="#422675"/><stop offset="1" stop-color="#EC642D"/></linearGradient></defs></svg>