<svg xmlns="http://www.w3.org/2000/svg" width="18" height="18" viewBox="0 0 18 18" fill="none"><path fill-rule="evenodd" clip-rule="evenodd" d="M2.31784 6.99341C4.1582 11.0022 7.4281 14.179 11.487 15.9015L11.4993 15.9067L12.2845 16.2563C12.7695 16.4727 13.3141 16.5155 13.8269 16.3775C14.3397 16.2395 14.7894 15.9291 15.1004 15.4984L16.4097 13.6856C16.4482 13.6322 16.4647 13.566 16.4559 13.5008C16.4471 13.4356 16.4137 13.3762 16.3624 13.3349L14.0768 11.4891C14.0498 11.4673 14.0187 11.4513 13.9854 11.4418C13.952 11.4324 13.9171 11.4298 13.8828 11.4342C13.8484 11.4387 13.8153 11.45 13.7854 11.4675C13.7555 11.4851 13.7295 11.5085 13.7089 11.5364L12.8189 12.7375C12.7141 12.8792 12.5638 12.9806 12.3933 13.025C12.2228 13.0693 12.0422 13.0539 11.8816 12.9812C8.84072 11.6028 6.40444 9.16511 5.02686 6.12245C4.95421 5.96182 4.93876 5.78114 4.98308 5.61049C5.02739 5.43985 5.12881 5.28955 5.27043 5.18464L6.46976 4.29311C6.49762 4.2725 6.52104 4.24647 6.53859 4.21657C6.55614 4.18667 6.56746 4.15353 6.57188 4.11914C6.57629 4.08475 6.57371 4.04982 6.56429 4.01645C6.55486 3.98308 6.53879 3.95197 6.51703 3.92498L4.67333 1.63805C4.63208 1.58677 4.57274 1.55328 4.50754 1.54448C4.44234 1.53568 4.37624 1.55224 4.32289 1.59075L2.50077 2.90697C2.06749 3.21968 1.75579 3.67286 1.61865 4.18949C1.48151 4.70613 1.52739 5.25433 1.74849 5.74095L2.31784 6.99341ZM10.8786 17.3185C6.46883 15.445 2.91658 11.9922 0.91708 7.6361L0.915024 7.63404L0.345677 6.37952C-0.0228363 5.56864 -0.0994118 4.65512 0.128961 3.79415C0.357333 2.93318 0.876568 2.17788 1.59845 1.65656L3.42056 0.340347C3.79375 0.0708527 4.256 -0.0452371 4.71214 0.0159747C5.16829 0.0771866 5.58363 0.311042 5.87266 0.669402L7.71739 2.95736C7.86962 3.14612 7.98214 3.36374 8.04819 3.59712C8.11424 3.8305 8.13246 4.07484 8.10174 4.31544C8.07102 4.55604 7.992 4.78795 7.86944 4.99722C7.74688 5.2065 7.58329 5.38882 7.38852 5.53323L6.69996 6.04327C7.86412 8.30175 9.70256 10.1412 11.9597 11.3061L12.4705 10.6171C12.6148 10.4224 12.797 10.2588 13.0061 10.1363C13.2151 10.0138 13.4468 9.93476 13.6871 9.90403C13.9275 9.87329 14.1715 9.89147 14.4047 9.95746C14.6378 10.0235 14.8552 10.1359 15.0439 10.2881L17.3305 12.1339C17.689 12.4231 17.9229 12.8389 17.984 13.2955C18.0452 13.7522 17.929 14.2149 17.6594 14.5884L16.3501 16.4023C15.8318 17.12 15.0825 17.6373 14.228 17.8675C13.3735 18.0976 12.4659 18.0265 11.6576 17.6661L10.8786 17.3185Z" fill="#F1E9FF"/></svg>