<svg xmlns="http://www.w3.org/2000/svg" width="18" height="18" viewBox="0 0 18 18" fill="none"><path d="M8.99998 14.1429L5.08498 8.61429C4.44417 7.85769 4.03149 6.9346 3.89502 5.95253C3.75855 4.97046 3.9039 3.96983 4.31414 3.06717C4.72437 2.16451 5.38262 1.39698 6.21221 0.853965C7.04179 0.310949 8.00859 0.0147969 8.99998 0C10.3742 0.0135805 11.6871 0.571239 12.651 1.55084C13.615 2.53044 14.1514 3.85212 14.1428 5.22643C14.1434 6.42532 13.7352 7.58857 12.9857 8.52429L8.99998 14.1429ZM8.99998 1.28571C7.96617 1.29759 6.97933 1.71924 6.25615 2.4581C5.53296 3.19695 5.13255 4.1926 5.14284 5.22643C5.1477 6.16993 5.48712 7.08111 6.1007 7.79786L8.99998 11.9057L11.9764 7.71429C12.5422 7.00807 12.8526 6.13131 12.8571 5.22643C12.8674 4.1926 12.467 3.19695 11.7438 2.4581C11.0206 1.71924 10.0338 1.29759 8.99998 1.28571Z" fill="#F1E9FF"/><path d="M9.00001 5.78578C9.71009 5.78578 10.2857 5.21015 10.2857 4.50007C10.2857 3.78999 9.71009 3.21436 9.00001 3.21436C8.28993 3.21436 7.71429 3.78999 7.71429 4.50007C7.71429 5.21015 8.28993 5.78578 9.00001 5.78578Z" fill="#F1E9FF"/><path d="M16.7143 6.42871H15.4286V7.71443H16.7143V16.7144H1.28571V7.71443H2.57143V6.42871H1.28571C0.944722 6.42871 0.617695 6.56417 0.376577 6.80529C0.135459 7.04641 0 7.37343 0 7.71443V16.7144C0 17.0554 0.135459 17.3824 0.376577 17.6236C0.617695 17.8647 0.944722 18.0001 1.28571 18.0001H16.7143C17.0553 18.0001 17.3823 17.8647 17.6234 17.6236C17.8645 17.3824 18 17.0554 18 16.7144V7.71443C18 7.37343 17.8645 7.04641 17.6234 6.80529C17.3823 6.56417 17.0553 6.42871 16.7143 6.42871Z" fill="#F1E9FF"/></svg>