<svg width="38" height="42" viewBox="0 0 38 42" fill="none" xmlns="http://www.w3.org/2000/svg">
<path d="M16 19H29M9 19H10M9 12H10M9 26H10M29 26H27M16 26H22M29 12H23M16 12H18M37 11V9.74C37 7.354 37 6.16 36.684 5.2C36.397 4.30847 35.9083 3.49513 35.2559 2.82323C34.6034 2.15133 33.8047 1.63898 32.922 1.326C31.986 1 30.828 1 28.51 1H9.49C7.172 1 6.014 1 5.078 1.326C4.19556 1.63891 3.39712 2.15101 2.74468 2.82253C2.09223 3.49404 1.60335 4.30691 1.316 5.198C1 6.162 1 7.354 1 9.74V27M37 19V37.748C37 39.464 35.03 40.376 33.784 39.236C33.4344 38.913 32.976 38.7336 32.5 38.7336C32.024 38.7336 31.5656 38.913 31.216 39.236L30.25 40.12C29.6376 40.6863 28.8341 41.0009 28 41.0009C27.1659 41.0009 26.3624 40.6863 25.75 40.12C25.1376 39.5537 24.3341 39.2391 23.5 39.2391C22.6659 39.2391 21.8624 39.5537 21.25 40.12C20.6376 40.6863 19.8341 41.0009 19 41.0009C18.1659 41.0009 17.3624 40.6863 16.75 40.12C16.1376 39.5537 15.3341 39.2391 14.5 39.2391C13.6659 39.2391 12.8624 39.5537 12.25 40.12C11.6376 40.6863 10.8341 41.0009 10 41.0009C9.16587 41.0009 8.36242 40.6863 7.75 40.12L6.784 39.236C6.43443 38.913 5.97596 38.7336 5.5 38.7336C5.02404 38.7336 4.56557 38.913 4.216 39.236C2.97 40.376 1 39.464 1 37.748V35" stroke="white" stroke-linecap="round"/>
</svg>
