<svg width="39" height="38" viewBox="0 0 39 38" fill="none" xmlns="http://www.w3.org/2000/svg">
<path d="M19.079 31.6317C7.54101 31.6317 0.482068 19.8014 0.185995 19.2991L0 18.9803L0.184729 18.6614C0.477007 18.1578 7.46003 6.32629 19.079 6.32629C30.698 6.32629 37.681 18.1591 37.9733 18.6614L38.158 18.9803L37.972 19.2991C37.6759 19.8014 30.617 31.6317 19.079 31.6317ZM1.47657 18.9777C2.68364 20.8529 9.28961 30.3664 19.079 30.3664C28.8823 30.3664 35.4756 20.8541 36.6814 18.9777C35.4845 17.1001 28.9367 7.59156 19.079 7.59156C9.22128 7.59156 2.67351 17.0988 1.47657 18.9777Z" fill="#422675"/>
<path d="M19.079 24.6727C15.9399 24.6727 13.3853 22.1182 13.3853 18.979C13.3853 18.0048 13.6371 17.0444 14.1115 16.1967C14.2824 15.8892 14.667 15.783 14.9732 15.9538C15.2781 16.1259 15.3869 16.5105 15.2149 16.8154C14.8454 17.4734 14.6506 18.2211 14.6506 18.979C14.6506 21.421 16.637 23.4075 19.079 23.4075C21.521 23.4075 23.5074 21.421 23.5074 18.979C23.5074 16.5371 21.521 14.5506 19.079 14.5506C18.311 14.5506 17.5531 14.7505 16.8888 15.1288C16.5839 15.2984 16.198 15.1946 16.0259 14.8909C15.8526 14.5885 15.9588 14.2014 16.2625 14.028C17.1166 13.5409 18.0908 13.2841 19.079 13.2841C22.2181 13.2841 24.7727 15.8386 24.7727 18.9778C24.7727 22.1169 22.2181 24.6727 19.079 24.6727Z" fill="#422675"/>
<path d="M19.079 29.1012C13.4979 29.1012 8.95685 24.5602 8.95685 18.9791C8.95685 16.7838 9.64895 14.6924 10.9598 12.9362C11.1685 12.6553 11.5658 12.5983 11.8455 12.8058C12.1251 13.0146 12.1833 13.4119 11.9745 13.6915C10.8282 15.2288 10.2221 17.0571 10.2221 18.9791C10.2221 23.8618 14.1951 27.836 19.079 27.836C23.9629 27.836 27.9359 23.8618 27.9359 18.9791C27.9359 14.0964 23.9629 10.1222 19.079 10.1222C17.1444 10.1222 15.3072 10.7346 13.7649 11.8923C13.4878 12.1061 13.0892 12.0454 12.8792 11.7671C12.6691 11.4874 12.7261 11.0914 13.0057 10.8814C14.7682 9.55663 16.8673 8.85693 19.079 8.85693C24.6601 8.85693 29.2012 13.398 29.2012 18.9791C29.2012 24.5602 24.6601 29.1012 19.079 29.1012Z" fill="#422675"/>
<path d="M23.4189 32.3896C23.3746 32.3896 23.3303 32.3947 23.286 32.4036C22.9444 32.477 22.7268 32.8123 22.8002 33.1551L23.5922 36.8687C23.6643 37.2103 24.0022 37.4216 24.3425 37.3558C24.6841 37.2824 24.9018 36.9472 24.8284 36.6043L24.0363 32.8907C23.9731 32.5934 23.7111 32.3896 23.4189 32.3896Z" fill="#422675"/>
<path d="M27.5677 31.0421C27.4817 31.0421 27.3944 31.0598 27.3109 31.0965C26.992 31.2395 26.8478 31.6127 26.9907 31.9329L28.5382 35.3997C28.6811 35.7173 29.0557 35.8615 29.3732 35.7198C29.6921 35.5768 29.8363 35.2036 29.6934 34.8835L28.1459 31.4166C28.0409 31.1813 27.8106 31.0421 27.5677 31.0421Z" fill="#422675"/>
<path d="M31.3483 28.8596C31.2193 28.8596 31.0889 28.8988 30.9776 28.9811C30.6942 29.1861 30.6322 29.5834 30.8384 29.8642L33.0729 32.9351C33.2778 33.2185 33.6739 33.2792 33.956 33.0742C34.2394 32.8693 34.3014 32.472 34.0952 32.1911L31.8607 29.1203C31.7367 28.9495 31.5444 28.8596 31.3483 28.8596Z" fill="#422675"/>
<path d="M34.5925 25.9393C34.4191 25.9393 34.247 26.0102 34.1218 26.1494C33.8877 26.4087 33.9092 26.8086 34.1686 27.0426L36.9914 29.582C37.2508 29.8174 37.6506 29.7959 37.8847 29.534C38.1188 29.2746 38.0973 28.8748 37.8379 28.6407L35.0151 26.1013C34.8949 25.9925 34.743 25.9393 34.5925 25.9393Z" fill="#422675"/>
<path d="M3.56427 25.9393C3.41244 25.9393 3.26187 25.9925 3.14167 26.1026L0.321382 28.6445C0.0607365 28.8786 0.0404922 29.2784 0.274567 29.5378C0.508642 29.7971 0.909732 29.8199 1.16785 29.5833L3.98813 27.0414C4.24878 26.8073 4.26902 26.4075 4.03495 26.1481C3.90969 26.0089 3.73761 25.9393 3.56427 25.9393Z" fill="#422675"/>
<path d="M6.80843 28.8596C6.61232 28.8596 6.41999 28.9495 6.296 29.1203L4.06533 32.1923C3.86035 32.4758 3.92362 32.8705 4.20577 33.0755C4.49046 33.2817 4.88396 33.2185 5.0902 32.9363L7.32087 29.8642C7.52584 29.5808 7.46258 29.1861 7.18042 28.9811C7.06655 28.8988 6.93622 28.8596 6.80843 28.8596Z" fill="#422675"/>
<path d="M10.5878 31.0421C10.3449 31.0421 10.1133 31.1813 10.0083 31.4179L8.46467 34.886C8.32296 35.2048 8.46593 35.5794 8.78604 35.7211C9.10742 35.8628 9.47941 35.7185 9.62112 35.3997L11.1648 31.9316C11.3065 31.6127 11.1635 31.2382 10.8434 31.0965C10.7611 31.0586 10.6738 31.0421 10.5878 31.0421Z" fill="#422675"/>
<path d="M14.7379 32.391C14.4456 32.391 14.1837 32.5947 14.1192 32.892L13.3296 36.6056C13.2575 36.9472 13.4751 37.2825 13.8168 37.3559C14.1622 37.4204 14.4949 37.2091 14.5671 36.8675L15.3566 33.1539C15.4287 32.8123 15.2111 32.477 14.8695 32.4036C14.8252 32.3961 14.7809 32.391 14.7379 32.391Z" fill="#422675"/>
<path d="M19.079 32.8464C18.7298 32.8464 18.4464 33.1299 18.4464 33.4791V37.2749C18.4464 37.6241 18.7298 37.9075 19.079 37.9075C19.4282 37.9075 19.7117 37.6241 19.7117 37.2749V33.4791C19.7117 33.1299 19.4282 32.8464 19.079 32.8464Z" fill="#422675"/>
<path d="M23.4189 5.51783C23.3746 5.51783 23.3303 5.51277 23.286 5.50391C22.9444 5.43053 22.7268 5.09523 22.8002 4.75234L23.5922 1.03878C23.6644 0.697154 24.0022 0.485854 24.3425 0.551648C24.6842 0.625033 24.9018 0.96033 24.8284 1.30322L24.0364 5.01678C23.9731 5.31412 23.7112 5.51783 23.4189 5.51783Z" fill="#422675"/>
<path d="M27.5677 6.8654C27.4817 6.8654 27.3944 6.84769 27.3109 6.811C26.992 6.66802 26.8478 6.29477 26.9907 5.97465L28.5382 2.50782C28.6811 2.19023 29.0557 2.04599 29.3732 2.1877C29.6921 2.33068 29.8363 2.70393 29.6934 3.02405L28.1459 6.49088C28.0409 6.72622 27.8106 6.8654 27.5677 6.8654Z" fill="#422675"/>
<path d="M31.3483 9.04795C31.2193 9.04795 31.089 9.00873 30.9776 8.92649C30.6942 8.72152 30.6309 8.32549 30.8372 8.04333L33.0716 4.97252C33.2766 4.6891 33.6726 4.62837 33.9548 4.83334C34.2382 5.03832 34.3002 5.43561 34.094 5.7165L31.8595 8.78731C31.7368 8.95812 31.5445 9.04795 31.3483 9.04795Z" fill="#422675"/>
<path d="M34.5925 11.9682C34.4192 11.9682 34.2471 11.8973 34.1218 11.7581C33.8877 11.4987 33.9092 11.0989 34.1686 10.8648L36.9927 8.32545C37.2521 8.09011 37.6519 8.11162 37.886 8.37353C38.1201 8.63291 38.0986 9.03274 37.8392 9.26681L35.0164 11.8062C34.8949 11.915 34.7431 11.9682 34.5925 11.9682Z" fill="#422675"/>
<path d="M3.56428 11.9682C3.41245 11.9682 3.26188 11.915 3.14168 11.805L0.320131 9.26431C0.0594853 9.03023 0.0392409 8.63041 0.273316 8.37103C0.507391 8.11165 0.908481 8.08887 1.1666 8.32548L3.98688 10.8674C4.24753 11.1015 4.26777 11.5013 4.0337 11.7607C3.9097 11.8986 3.73762 11.9682 3.56428 11.9682Z" fill="#422675"/>
<path d="M6.80845 9.04794C6.61233 9.04794 6.42001 8.95811 6.29601 8.7873L4.06408 5.71522C3.8591 5.4318 3.92237 5.03704 4.20452 4.83206C4.48921 4.62582 4.88271 4.68909 5.08895 4.97124L7.31962 8.04332C7.52459 8.32674 7.46133 8.7215 7.17917 8.92647C7.06656 9.00872 6.93624 9.04794 6.80845 9.04794Z" fill="#422675"/>
<path d="M10.5878 6.86543C10.3449 6.86543 10.1133 6.72625 10.0083 6.48964L8.46467 3.02154C8.32423 2.70269 8.4672 2.32817 8.78732 2.18646C9.1087 2.04475 9.48069 2.18899 9.6224 2.50784L11.166 5.97594C11.3077 6.29479 11.1648 6.66931 10.8446 6.81102C10.7611 6.84898 10.6738 6.86543 10.5878 6.86543Z" fill="#422675"/>
<path d="M14.7379 5.51652C14.4456 5.51652 14.1837 5.31282 14.1192 5.01548L13.3296 1.30191C13.2575 0.960288 13.4751 0.624991 13.8168 0.551606C14.1622 0.487077 14.4949 0.698377 14.5671 1.04L15.3566 4.75357C15.4287 5.09519 15.2111 5.43048 14.8695 5.50387C14.8252 5.51146 14.7809 5.51652 14.7379 5.51652Z" fill="#422675"/>
<path d="M19.079 5.06108C18.7298 5.06108 18.4464 4.77766 18.4464 4.42844V0.632635C18.4464 0.28342 18.7298 0 19.079 0C19.4282 0 19.7117 0.28342 19.7117 0.632635V4.42844C19.7117 4.77766 19.4282 5.06108 19.079 5.06108Z" fill="#422675"/>
</svg>
